# xmcd
#
# Track frame offsets:
#	150
#	72300
#	146440
#	229347
#
# Disc length: 4204 seconds
#
# Revision: 1
# Processed by: cddbd v1.5.2PL0 Copyright (c) Steve Scherf et al.
# Submitted via: audiograbber 1.83.01
#
DISCID=35106a04
DTITLE=Kempowski, Walter - Schöne Aussicht - CD 10
DYEAR=1900
DGENRE=
TTITLE0=Kapitel 10, Abschnitt 2
TTITLE1=Kapitel 10, Abschnitt 3
TTITLE2=Kapitel 10, Abschnitt 4
TTITLE3=Kapitel 10, Abschnitt 5
EXTD=
EXTT0=
EXTT1=
EXTT2=
EXTT3=
PLAYORDER=
